<svg xmlns="http://www.w3.org/2000/svg" viewBox="0 0 1119.79 1119.79"><defs><style>.cls-1{fill:#c6c6c6;}.cls-2{fill:#fff;}.cls-3{fill:#f39200;}</style></defs><g id="Fond"><circle class="cls-1" cx="559.9" cy="559.9" r="559.9"/></g><g id="Logo"><rect class="cls-2" x="145.75" y="435.78" width="68.17" height="229.35"/><polygon id="Triangle" class="cls-2" points="524.25 470.81 524.25 646.22 676.85 563.03 524.25 470.81"/><path class="cls-3" d="M559.78,648.49c-29.38-42.66-73.84-52.68-83.35-54.6,9.2-3.92,52.7-23.59,72.21-72.81,4.89-12.33,14.28-41.65,5.66-76-11.32-45.15-46.28-69.57-64-81.94-92.6-64.69-222.31-20.72-241.22-14q-.09,57.42-.16,114.86l68.17-.19-.31-68.19,0,0a240.88,240.88,0,0,1,68.66-6.65c29.86,1.45,55,2.68,76,20.67,19.56,16.73,25.88,39.65,28.18,52.07.75,4,4.12,26-4.55,47.59-13.54,33.74-52.38,56.37-97.93,57.79l-35.4,26.83,36.62,21.69c2.83-.2,69-3.81,104.09,48.72,17.86,26.74,24,62.49,13.29,90.8-19.67,52.1-98.71,85.68-189,61.28V726.15H249.19l-.09,141.9h0c139.26,30.92,263.53,3.54,312.09-73.82,9.24-14.72,18-34.8,21.45-62C583.38,720.87,584.34,684.15,559.78,648.49Z" transform="translate(-103.18 -44.49)"/><polygon class="cls-3" points="974.43 382.67 714.09 382.67 714.09 304.8 1018.3 304.8 974.43 382.67"/><polygon class="cls-3" points="888.48 589.74 785.45 589.74 785.45 519.27 923.33 519.27 888.48 589.74"/><rect class="cls-3" x="714.09" y="304.8" width="86.81" height="516.26"/><rect class="cls-2" x="61.05" y="435.78" width="68.17" height="229.02"/></g></svg>